<mxfile host="app.diagrams.net" modified="2022-09-18T07:12:36.514Z" agent="5.0 (Macintosh)" etag="6r_ROcuoJbG3oM9NgvlA" version="20.3.2" type="github">
  <diagram id="tCqJOJ97xa0axkCrKHn_" name="第 1 页">
    <mxGraphModel dx="1298" dy="711" grid="1" gridSize="10" guides="1" tooltips="1" connect="1" arrows="1" fold="1" page="1" pageScale="1" pageWidth="827" pageHeight="1169" math="0" shadow="0">
      <root>
        <mxCell id="0" />
        <mxCell id="1" parent="0" />
        <mxCell id="Nuo4zT9zHZKMsYIjvyeh-1" value="" style="rounded=0;whiteSpace=wrap;html=1;" vertex="1" parent="1">
          <mxGeometry x="230" y="160" width="120" height="60" as="geometry" />
        </mxCell>
      </root>
    </mxGraphModel>
  </diagram>
</mxfile>
